<svg xmlns="http://www.w3.org/2000/svg" viewBox="0 0 4114.88 526.87"><defs><style>.cls-1{fill:#fff;}</style></defs><path class="cls-1" d="M3611.21,427.74c-14.83,0-29.8,1.11-44.42-.63-4.91-.58-11.5-7.78-12.82-13.08-2.14-8.6-.57-18.12-.57-29.3-11.24,9.46-20.77,17.54-30.36,25.54-64.59,53.87-148.74,7.14-165-66-11.76-53,.61-100,42.37-137a108.73,108.73,0,0,1,61.75-26.61c29.33-2.91,59.37-3.29,85.59,14.82a4.27,4.27,0,0,0,2.54.71c0-38.14,1-76.42-.72-114.58-.42-9.23-9.9-18-15.9-28.22l56.95-24.61V48c0,109.38-.2,218.75.19,328.12.06,18.71,1.76,37.78,22.23,48.27C3612.45,425.52,3611.83,426.63,3611.21,427.74Zm-57.83-112.91c0-13.41-.54-26.84.1-40.22,1.59-32.84-13.45-56.84-40.12-73.8-37.32-23.73-95.86-14.58-113.09,34.26-16.71,47.39-11.2,92.83,16,135.07,22.69,35.27,57.37,47.51,96.1,32.56a104.07,104.07,0,0,0,38.35-25.95c5.3-5.81,2.33-19.36,2.62-29.43C3553.62,336.5,3553.38,325.66,3553.38,314.83Z"/><path class="cls-1" d="M413.35,430H338.11c-.26-.92-1-2.59-.73-2.75,18.93-11.9,18.42-30.44,18.18-49.62-.56-44.89-.67-89.8.08-134.68.26-15.61-4.84-26.68-23.1-36.09l61.76-27.56v42.42c26.52-12.32,51.23-27.56,78.1-35.46,45.38-13.34,87.85-1.25,101.83,49.78,3.19,11.62,4.25,24.08,4.5,36.19.61,30.44-.13,60.9.31,91.34.32,23.14-6.09,48.34,22.4,66.28H516c28.6-18,22.18-43.18,22.47-66.32.44-33.54.89-67.11-.1-100.62-1-35.44-24.1-67.33-64.81-64.9-25,1.49-44.06,13.44-64.08,25.38-11.48,6.85-14.29,16-14,29,.85,42.3.33,84.62.32,126.94C395.73,397.74,396.1,416,413.35,430Z"/><path class="cls-1" d="M3187.58,203l59.32-26.34c.84,6.45,2.1,11.66,2.11,16.87.15,53.14,0,106.28.13,159.42.06,25.64-4.36,52.46,22.92,74.8-19.29,0-33.64,1.19-47.59-.66-4.73-.62-10.72-8.34-12.08-13.82-2-8.25-.54-17.39-.54-29.33-13.08,10.37-23.84,20-35.71,28.07-24.69,16.73-52.45,24.73-81.75,18.3-32.65-7.17-50.77-28.94-53-65.36-2.44-39.94-3.11-80-3.09-120.07,0-17-2.6-31.22-23-41.19L3076.43,176c.79,7.46,1.82,12.75,1.83,18,.12,52.62-.31,105.25.27,157.87.22,20.5,4.62,40.84,22,54,19.34,14.62,41.63,12.45,61.92,2.7,15.33-7.36,29-18.44,42.62-28.89,3.71-2.85,6.37-9.4,6.43-14.29q.78-58,.2-116.08C3211.55,226.14,3207.08,217.71,3187.58,203Z"/><path class="cls-1" d="M0,206.52l63.52-27.89v19.73c0,52.63-1.23,105.29.47,157.86,1,31.39,10.88,55.94,41.85,61.57,20.64,3.75,39.44-2.77,56.68-13.28A161,161,0,0,0,190.08,383c3.84-3.69,6.58-10.4,6.65-15.79.56-38.17,1-76.37,0-114.52-.46-17-2.19-35-25.75-45.58l62.28-27.93c.45,8,1,13.33,1,18.68.07,54.17,0,108.35.08,162.52,0,24.21-4,49.59,20.46,67.5l-2.52,2.87c-14.66,0-29.44,1-43.9-.65-4.24-.49-9.7-8.24-10.84-13.47-1.82-8.37-.49-17.42-.49-29.2-7,5.17-13.06,8.46-17.6,13.19-21.12,22-48.17,31.9-77.19,35.5C62.92,441,28,409.26,26.39,368.32c-1.61-40.52-2.92-81.09-2.88-121.63C23.53,230,20.16,216.66,0,206.52Z"/><path class="cls-1" d="M3857.65,307.94c-1.29-72.34,54.13-129.6,126.77-129.89,70.24-.28,130.7,38.94,130.46,125.23-.22,80.73-59.51,129.24-130.36,129.46C3913.06,433,3855.47,385.44,3857.65,307.94ZM3894.4,284c3.37,44.58,17.93,88.38,56.84,120.8,33.17,27.64,89.71,21.39,109.85-14,14.55-25.56,19.79-51.84,14.31-81.34-7-37.88-20.61-72.26-49.08-98.54-31.79-29.34-69.21-32.35-101.27-6.83C3901,223.24,3895.46,250.78,3894.4,284Z"/><path class="cls-1" d="M1890.39,241.41c19.71-29,45.79-49.2,80.22-54.64,17.62-2.78,36.81-2.86,54.13,1,41.83,9.35,54.83,38.51,56.52,75.76,1.84,40.67,0,81.51.6,122.26.29,19.71,2.47,29.37,20.79,44.9-18,0-33.2,1.16-48-.76-4-.52-9.51-10.22-9.75-15.91-1.06-25.22-.46-50.51-.46-80.49-5.27,13.14-8.31,22.37-12.55,31-18,36.75-43.85,67-86.43,71.54-32.08,3.45-59-8.06-71.7-44.06-9.85-28,4.18-59.28,31.74-76.06,37.85-23.05,81.17-30,122.44-43,5.21-1.64,10.57-2.85,16.65-4.47-1.69-24.69-7.24-48-30-59.67C1964.54,183.33,1925.92,206.71,1890.39,241.41Zm152.14,33.89c-25.16,7.41-50.42,14.28-75.26,22.42-11.46,3.75-22.16,9.85-33.08,15.14-19.72,9.54-35.27,42.3-20.81,70,11,21.16,35,29.94,60.54,23.63C2020.23,395,2051.82,318.16,2042.53,275.3Z"/><path class="cls-1" d="M1297.23,266.38C1290,333.76,1316.76,384,1367.42,401c39.13,13.19,88.64,3.18,122.12-40.75-.5,6.39.28,9.79-1.06,11.76-44.91,66.07-126.36,91.26-192,31.79-30.36-27.51-38.53-66.69-33.65-106.59,3.88-31.77,17-60.23,42.58-81.73,35.6-29.85,74.66-38.6,120.44-27.1,35.93,9,61.52,43.37,62.22,78Zm2.82-6.69h150.62c-11.57-43.84-37.89-66.43-74.83-67.52C1341.21,191.15,1307.84,214.63,1300.05,259.69Z"/><path class="cls-1" d="M983.63,266.4C976.38,334,1003.27,384,1053.85,401c39.07,13.18,88.5,3.26,122.11-40.73-.5,6.39.27,9.79-1.08,11.76-45,66.13-126.43,91.19-192,31.75-30.34-27.5-38.55-66.69-33.59-106.59,3.59-28.83,14.63-55.25,37-76.36,35.87-33.89,76.47-44.44,124.63-32.9,38.48,9.21,62.55,43.35,63.62,78.43Zm153.25-6.55c-7.49-44.21-45.06-70.58-82.05-67.74-32.79,2.52-63.91,29.34-67.6,67.74Z"/><path class="cls-1" d="M1560.18,187.24h75.17c-18.36,9.22-13.78,20.76-9.32,31.3,19.27,45.53,39,90.85,58.66,136.21,3.76,8.67,7.93,17.17,12.82,27.72,21.46-50.21,42-98.15,62.42-146.13,2-4.63,3.14-9.59,5.06-14.25,6-14.58,4.24-26.32-11.74-34.49h58.17c-43.59,24.7-50.21,68.76-68.08,105.75-29.39,60.84-48.8,126.45-87,183.07-19,28.22-45.22,46.4-79.91,50.23a41.4,41.4,0,0,1-16.62-1.7c-8.76-2.8-22.69-.22-21.22-16,1.13-12.15,18.14-24.64,31.48-23.1,16.61,1.92,33.06,5.35,49.69,7,5.46.54,13.5-.5,16.51-4.06,11.73-13.85,21.31-29.5,32.84-43.54,13.39-16.32-.13-29.21-5.33-41.95-23.08-56.48-47-112.65-72.19-168.2C1583.9,218.14,1571,203.48,1560.18,187.24Z"/><path class="cls-1" d="M2702.65,241.62c-11.15-12.58-21.53-25-32.67-36.71-19.56-20.55-61.61-25.19-86.1-13.2-11.92,5.84-20.72,14.43-21.07,29.3-.41,17,3.53,32.15,20.08,39.54,26.64,11.92,53.61,23.26,81,33.28,37.21,13.61,54.93,34.49,50.66,69.55-4.2,34.5-22.57,55.38-58.09,64-37.17,9.05-73.7,3.31-109.26-10.41-18.66-7.2-10.46-24.52-14.77-36.91-2.85-8.18-.54-18.15-.54-31.06,9.63,13.74,17.44,24.43,24.78,35.43,16.17,24.22,62.91,48.43,98.06,37,15.88-5.14,28.47-14.27,32.15-31.13,4.25-19.49.94-38-18.62-47.61-22.55-11.08-46.48-19.35-69.41-29.71-15.55-7-32.38-13.2-45.18-23.87-31.84-26.51-18.57-84.34,20.61-100.15s78.32-10.66,117.4-1.48c4.6,1.08,9.76,9.71,10.46,15.37C2703.73,215.48,2702.65,228.39,2702.65,241.62Z"/><path class="cls-1" d="M845.94,244.63c-11-12.35-21.55-25.1-33-37-23.53-24.33-76.55-23.23-95.31-7.16-19.25,16.49-12.93,53.87,7.57,63,27.14,12,54.59,23.54,82.48,33.73,36.63,13.38,52.11,33.17,50.72,68.31-1.13,28.77-26.43,58.35-57.51,65.1-37.89,8.22-74.68,3.27-110.8-10.72-17.71-6.86-10.12-22.76-14.13-34.17-3.16-9-.64-20-.64-33.81,9.75,14.17,17.05,25.32,24.9,36.08,21.39,29.36,73.05,50.77,108.27,32.56,30-15.53,31.06-60.69,3.95-74.1-23-11.37-47-20.56-70.87-30.11-20.3-8.14-42.33-14-53.87-34.67-20-35.84-4.44-82.39,44.53-95.11,34.51-9,69.3-5.08,103.27,4.22,4.45,1.22,9.44,9,10,14.18C846.9,218,845.94,231.2,845.94,244.63Z"/><path class="cls-1" d="M2947.84,383.5c-14.71,30.57-50.42,54.33-84.38,47.34-23.88-4.91-35.49-25.09-36.25-59.57-1.32-59.81-.37-119.66-.37-181l-30.34-1.67c2.41-13,39.4-50.48,66.8-67.7V183H2938c0,1.53.08,3.06.13,4.59h-72.65c-.6,6.25-1.29,10.16-1.3,14.08-.07,51.6-.61,103.22.35,154.8.23,12.71,2.44,27.11,8.88,37.6,13.66,22.28,40.55,17.33,62.64.52C2940.3,391.36,2943.92,387.23,2947.84,383.5Z"/><path class="cls-1" d="M2394.74,0l19.37,6.94c-58.44,169.59-116.63,338.46-175.3,508.7l-19.56-6.28C2277.83,339.32,2336,170.42,2394.74,0Z"/><path class="cls-1" d="M3685.48,426.2c31-16.11,22.53-41.47,22.94-63.8.72-39.67-.44-79.38.5-119,.41-16.79-3.53-29.9-23.07-39.83l61.18-27c.77,6.83,1.87,12.09,1.88,17.37q.18,91.21.07,182.44c0,18.39.4,36.6,22.83,49.9Z"/><path class="cls-1" d="M3752.09,121c0,14.54-12.4,27.48-26.25,27.31-12-.15-26.2-14.24-26.53-26.41-.42-15.58,11.46-28.52,26.25-28.58C3742.88,93.25,3752.05,102.81,3752.09,121Z"/></svg>
